<?xml version="1.0" encoding="utf-8"?>
<svg xmlns="http://www.w3.org/2000/svg" height="128" width="128" viewBox="0 0 128 128">
  <g>
    <path id="path1" transform="rotate(0,64,64) translate(41.67823783658,30) scale(2.12506586517393,2.12506586517393)  " fill="#000000" d="M13.004038,11.999008L15.004038,11.999008 15.004038,27.999008 13.004038,27.999008z M9.0040382,11.999008L11.004038,11.999008 11.004038,27.999008 9.0040382,27.999008z M5.0040382,11.999008L7.0040382,11.999008 7.0040382,27.999008 5.0040382,27.999008z M2.0040382,9.9990084L2.0040382,29.999008 18.005991,29.999008 18.004038,9.9990084z M0.0040382088,7.9990083L20.004038,7.9990083 20.004038,29.999008C20.004038,31.102036,19.107066,31.999008,18.004038,31.999008L2.0040382,31.999008C0.90101089,31.999008,0.0040382347,31.102036,0.0040382088,29.999008z M9.382152,1.9928446C9.4311546,2.0108452,9.2901482,2.1378503,9.2241453,2.3918595L9.1588997,2.6454129 12.349724,3.4957047 12.411291,3.2568917C12.479293,2.9928818,12.41229,2.8088751,12.379289,2.7708735z M9.3526691,0.0019369125C9.5361752,-0.0065422058,9.7194179,0.01277113,9.8971762,0.060772896L12.969316,0.87780333C14.082366,1.1758142,14.686393,2.4398613,14.348379,3.7559104L14.282698,4.0108039 21.008067,5.8029819 20.492064,7.7349798 0,2.273984 0.51500203,0.34198523 7.2264289,2.1304479 7.2880572,1.8918409C7.4690656,1.189815 7.8960847,0.59879303 8.4571108,0.27178049 8.7402481,0.10739946 9.0468248,0.016067982 9.3526691,0.0019369125z" />
  </g>
</svg>

